<svg width="70" height="76" viewBox="0 0 70 76" fill="none" xmlns="http://www.w3.org/2000/svg">
<path d="M0 10C0 4.47715 4.47715 0 10 0H60C65.5229 0 70 4.47715 70 10V66C70 71.5229 65.5229 76 60 76H10C4.47715 76 0 71.5229 0 66V10Z" fill="#23A6F0"/>
<path d="M35 53.0267L23 43.6934L25.16 42.0134L34.9867 49.6534L44.8267 42.0014L47 43.6934L35 53.0267ZM35 47.3334L23 38.0001L25.16 36.3201L34.9867 43.9601L44.8267 36.3067L47 38.0001L35 47.3334ZM35 41.6401L25.1733 34.0001L23 32.3067L35 22.9734L47 32.3067L44.8133 34.0001L35 41.6401Z" fill="white"/>
</svg>
