<svg width="70" height="76" viewBox="0 0 70 76" fill="none" xmlns="http://www.w3.org/2000/svg">
<path d="M0 10C0 4.47715 4.47715 0 10 0H60C65.5229 0 70 4.47715 70 10V66C70 71.5229 65.5229 76 60 76H10C4.47715 76 0 71.5229 0 66V10Z" fill="#23A6F0"/>
<path d="M45.6667 48.6666H24.3333C22.8606 48.6666 21.6667 47.4727 21.6667 45.9999V29.9999C21.6667 28.5272 22.8606 27.3333 24.3333 27.3333H45.6667C47.1394 27.3333 48.3333 28.5272 48.3333 29.9999V45.9999C48.3333 47.4727 47.1394 48.6666 45.6667 48.6666ZM24.3333 37.9999V45.9999H45.6667V37.9999H24.3333ZM24.3333 29.9999V32.6666H45.6667V29.9999H24.3333ZM36.3333 43.3333H27V40.6666H36.3333V43.3333Z" fill="white"/>
</svg>
