<svg width="70" height="76" viewBox="0 0 70 76" fill="none" xmlns="http://www.w3.org/2000/svg">
<path d="M0 10C0 4.47715 4.47715 0 10 0H60C65.5229 0 70 4.47715 70 10V66C70 71.5229 65.5229 76 60 76H10C4.47715 76 0 71.5229 0 66V10Z" fill="#23A6F0"/>
<path d="M35 51.3334C27.6395 51.3254 21.6747 45.3605 21.6667 38.0001V37.7334C21.8132 30.4061 27.8461 24.5707 35.1742 24.6679C42.5023 24.7652 48.3783 30.7586 48.3304 38.0872C48.2825 45.4158 42.3287 51.332 35 51.3334ZM28.88 37.4534L27 39.3334L32.3333 44.6668L43 34.0001L41.12 32.1068L32.3333 40.8934L28.88 37.4534Z" fill="white"/>
</svg>
